<?xml version="1.0" encoding="iso-8859-1"?>
<svg xmlns="http://www.w3.org/2000/svg" xmlns:xlink="http://www.w3.org/1999/xlink" viewBox="0 0 50 50" version="1.1">
<title>Promotion</title>
<g id="surface1">
<path style=" " d="M 25 2 C 15.070313 2 7 10.070313 7 20 C 7 23.992188 8.324219 27.667969 10.53125 30.65625 L 4.125 41.59375 C 3.953125 41.886719 3.941406 42.246094 4.09375 42.546875 C 4.246094 42.851563 4.539063 43.054688 4.875 43.09375 L 9.875 43.65625 L 12.59375 47.5625 C 12.789063 47.84375 13.113281 48.007813 13.453125 47.996094 C 13.796875 47.980469 14.109375 47.796875 14.28125 47.5 L 20.21875 37.34375 C 21.742188 37.765625 23.34375 38 25 38 C 26.65625 38 28.257813 37.765625 29.78125 37.34375 L 35.71875 47.5 C 35.890625 47.796875 36.203125 47.980469 36.546875 47.996094 C 36.886719 48.007813 37.210938 47.84375 37.40625 47.5625 L 40.125 43.65625 L 45.125 43.09375 C 45.460938 43.054688 45.753906 42.851563 45.90625 42.546875 C 46.058594 42.246094 46.046875 41.886719 45.875 41.59375 L 39.46875 30.65625 C 41.675781 27.667969 43 23.992188 43 20 C 43 10.070313 34.929688 2 25 2 Z M 25 4 C 33.847656 4 41 11.152344 41 20 C 41 23.761719 39.695313 27.207031 37.53125 29.9375 C 37.507813 29.96875 37.488281 30 37.46875 30.03125 C 34.539063 33.671875 30.046875 36 25 36 C 19.992188 36 15.527344 33.71875 12.59375 30.125 C 12.558594 30.058594 12.515625 29.996094 12.46875 29.9375 C 10.304688 27.207031 9 23.761719 9 20 C 9 11.152344 16.152344 4 25 4 Z M 25 5 C 24.449219 5 24 5.449219 24 6 C 24 6.550781 24.449219 7 25 7 C 25.550781 7 26 6.550781 26 6 C 26 5.449219 25.550781 5 25 5 Z M 22.0625 5.28125 C 21.519531 5.390625 21.175781 5.925781 21.28125 6.46875 C 21.390625 7.011719 21.925781 7.355469 22.46875 7.25 C 23.011719 7.140625 23.355469 6.605469 23.25 6.0625 C 23.144531 5.519531 22.601563 5.171875 22.0625 5.28125 Z M 27.53125 5.28125 C 27.148438 5.359375 26.832031 5.65625 26.75 6.0625 C 26.640625 6.605469 26.988281 7.140625 27.53125 7.25 C 28.074219 7.359375 28.609375 7.011719 28.71875 6.46875 C 28.828125 5.925781 28.480469 5.390625 27.9375 5.28125 C 27.800781 5.253906 27.660156 5.253906 27.53125 5.28125 Z M 19.65625 6.0625 C 19.527344 6.0625 19.378906 6.101563 19.25 6.15625 C 18.738281 6.367188 18.507813 6.925781 18.71875 7.4375 C 18.929688 7.949219 19.519531 8.210938 20.03125 8 C 20.542969 7.789063 20.773438 7.199219 20.5625 6.6875 C 20.402344 6.304688 20.046875 6.066406 19.65625 6.0625 Z M 30.34375 6.0625 C 29.953125 6.066406 29.597656 6.304688 29.4375 6.6875 C 29.226563 7.199219 29.457031 7.789063 29.96875 8 C 30.480469 8.210938 31.070313 7.949219 31.28125 7.4375 C 31.492188 6.925781 31.261719 6.367188 30.75 6.15625 C 30.621094 6.101563 30.472656 6.0625 30.34375 6.0625 Z M 17.03125 7.375 C 16.902344 7.398438 16.769531 7.453125 16.65625 7.53125 C 16.195313 7.839844 16.066406 8.445313 16.375 8.90625 C 16.683594 9.367188 17.320313 9.496094 17.78125 9.1875 C 18.242188 8.878906 18.371094 8.273438 18.0625 7.8125 C 17.832031 7.46875 17.414063 7.300781 17.03125 7.375 Z M 32.59375 7.375 C 32.34375 7.425781 32.089844 7.582031 31.9375 7.8125 C 31.628906 8.273438 31.757813 8.878906 32.21875 9.1875 C 32.679688 9.496094 33.316406 9.367188 33.625 8.90625 C 33.933594 8.445313 33.804688 7.839844 33.34375 7.53125 C 33.113281 7.378906 32.84375 7.324219 32.59375 7.375 Z M 15.09375 9.09375 C 14.835938 9.09375 14.601563 9.210938 14.40625 9.40625 C 14.015625 9.796875 14.015625 10.421875 14.40625 10.8125 C 14.796875 11.203125 15.421875 11.203125 15.8125 10.8125 C 16.203125 10.421875 16.203125 9.796875 15.8125 9.40625 C 15.617188 9.210938 15.351563 9.09375 15.09375 9.09375 Z M 34.90625 9.09375 C 34.648438 9.09375 34.382813 9.210938 34.1875 9.40625 C 33.796875 9.796875 33.796875 10.421875 34.1875 10.8125 C 34.578125 11.203125 35.203125 11.203125 35.59375 10.8125 C 35.984375 10.421875 35.984375 9.796875 35.59375 9.40625 C 35.398438 9.210938 35.164063 9.09375 34.90625 9.09375 Z M 13.15625 11.25 C 12.90625 11.300781 12.683594 11.425781 12.53125 11.65625 C 12.222656 12.117188 12.351563 12.753906 12.8125 13.0625 C 13.273438 13.371094 13.878906 13.242188 14.1875 12.78125 C 14.496094 12.320313 14.367188 11.683594 13.90625 11.375 C 13.675781 11.222656 13.40625 11.199219 13.15625 11.25 Z M 36.4375 11.25 C 36.308594 11.273438 36.207031 11.328125 36.09375 11.40625 C 35.632813 11.714844 35.503906 12.320313 35.8125 12.78125 C 36.121094 13.242188 36.726563 13.371094 37.1875 13.0625 C 37.648438 12.753906 37.777344 12.117188 37.46875 11.65625 C 37.238281 11.3125 36.820313 11.175781 36.4375 11.25 Z M 24.65625 12.6875 C 24.578125 13.113281 23.511719 14.882813 21.21875 15.03125 L 21.21875 16.8125 L 24.03125 16.8125 L 24.03125 26.6875 L 26.53125 26.6875 L 26.53125 12.6875 Z M 12.0625 13.65625 C 11.671875 13.660156 11.316406 13.867188 11.15625 14.25 C 10.945313 14.761719 11.175781 15.351563 11.6875 15.5625 C 12.199219 15.773438 12.789063 15.542969 13 15.03125 C 13.210938 14.519531 12.949219 13.929688 12.4375 13.71875 C 12.308594 13.664063 12.191406 13.65625 12.0625 13.65625 Z M 37.9375 13.65625 C 37.808594 13.65625 37.691406 13.664063 37.5625 13.71875 C 37.050781 13.929688 36.789063 14.519531 37 15.03125 C 37.210938 15.542969 37.800781 15.773438 38.3125 15.5625 C 38.824219 15.351563 39.054688 14.761719 38.84375 14.25 C 38.683594 13.867188 38.328125 13.660156 37.9375 13.65625 Z M 11.0625 16.28125 C 10.679688 16.359375 10.363281 16.65625 10.28125 17.0625 C 10.171875 17.605469 10.519531 18.140625 11.0625 18.25 C 11.605469 18.359375 12.140625 18.011719 12.25 17.46875 C 12.359375 16.925781 12.011719 16.390625 11.46875 16.28125 C 11.332031 16.253906 11.191406 16.253906 11.0625 16.28125 Z M 38.53125 16.28125 C 37.988281 16.390625 37.644531 16.925781 37.75 17.46875 C 37.859375 18.007813 38.394531 18.355469 38.9375 18.25 C 39.480469 18.140625 39.824219 17.605469 39.71875 17.0625 C 39.609375 16.519531 39.074219 16.175781 38.53125 16.28125 Z M 16.25 17.6875 L 15.53125 19.125 L 13.9375 19.34375 L 15.09375 20.46875 L 14.8125 22.0625 L 16.25 21.28125 L 17.65625 22.0625 L 17.375 20.46875 L 18.53125 19.34375 L 16.96875 19.125 Z M 33.25 17.6875 L 32.53125 19.125 L 30.9375 19.34375 L 32.09375 20.46875 L 31.8125 22.0625 L 33.25 21.28125 L 34.65625 22.0625 L 34.375 20.46875 L 35.53125 19.34375 L 33.96875 19.125 Z M 11 19 C 10.449219 19 10 19.449219 10 20 C 10 20.550781 10.449219 21 11 21 C 11.550781 21 12 20.550781 12 20 C 12 19.449219 11.550781 19 11 19 Z M 39 19 C 38.449219 19 38 19.449219 38 20 C 38 20.550781 38.449219 21 39 21 C 39.550781 21 40 20.550781 40 20 C 40 19.449219 39.550781 19 39 19 Z M 11.0625 21.75 C 10.519531 21.859375 10.175781 22.394531 10.28125 22.9375 C 10.390625 23.480469 10.925781 23.824219 11.46875 23.71875 C 12.011719 23.613281 12.355469 23.074219 12.25 22.53125 C 12.140625 21.992188 11.605469 21.644531 11.0625 21.75 Z M 38.53125 21.75 C 38.148438 21.828125 37.832031 22.125 37.75 22.53125 C 37.640625 23.074219 37.988281 23.609375 38.53125 23.71875 C 39.074219 23.828125 39.609375 23.480469 39.71875 22.9375 C 39.828125 22.398438 39.480469 21.859375 38.9375 21.75 C 38.800781 21.722656 38.660156 21.722656 38.53125 21.75 Z M 12.0625 24.34375 C 11.933594 24.34375 11.816406 24.382813 11.6875 24.4375 C 11.175781 24.648438 10.945313 25.238281 11.15625 25.75 C 11.367188 26.261719 11.925781 26.492188 12.4375 26.28125 C 12.949219 26.070313 13.210938 25.480469 13 24.96875 C 12.839844 24.585938 12.453125 24.347656 12.0625 24.34375 Z M 37.9375 24.34375 C 37.546875 24.347656 37.160156 24.585938 37 24.96875 C 36.789063 25.480469 37.050781 26.070313 37.5625 26.28125 C 38.074219 26.492188 38.632813 26.261719 38.84375 25.75 C 39.054688 25.238281 38.824219 24.648438 38.3125 24.4375 C 38.183594 24.382813 38.066406 24.34375 37.9375 24.34375 Z M 13.15625 26.78125 C 13.027344 26.804688 12.925781 26.859375 12.8125 26.9375 C 12.351563 27.246094 12.222656 27.882813 12.53125 28.34375 C 12.839844 28.804688 13.445313 28.902344 13.90625 28.59375 C 14.367188 28.285156 14.496094 27.679688 14.1875 27.21875 C 13.957031 26.875 13.539063 26.707031 13.15625 26.78125 Z M 36.84375 26.78125 C 36.460938 26.707031 36.042969 26.875 35.8125 27.21875 C 35.503906 27.679688 35.632813 28.285156 36.09375 28.59375 C 36.554688 28.902344 37.160156 28.804688 37.46875 28.34375 C 37.777344 27.882813 37.648438 27.246094 37.1875 26.9375 C 37.074219 26.859375 36.972656 26.804688 36.84375 26.78125 Z M 15.09375 28.90625 C 14.835938 28.90625 14.601563 28.992188 14.40625 29.1875 C 14.015625 29.578125 14.015625 30.203125 14.40625 30.59375 C 14.796875 30.984375 15.421875 30.984375 15.8125 30.59375 C 16.203125 30.203125 16.203125 29.578125 15.8125 29.1875 C 15.617188 28.992188 15.351563 28.90625 15.09375 28.90625 Z M 34.90625 28.90625 C 34.648438 28.90625 34.382813 28.992188 34.1875 29.1875 C 33.796875 29.578125 33.796875 30.203125 34.1875 30.59375 C 34.578125 30.984375 35.203125 30.984375 35.59375 30.59375 C 35.984375 30.203125 35.984375 29.578125 35.59375 29.1875 C 35.398438 28.992188 35.164063 28.90625 34.90625 28.90625 Z M 17.03125 30.65625 C 16.78125 30.707031 16.558594 30.863281 16.40625 31.09375 C 16.097656 31.554688 16.195313 32.160156 16.65625 32.46875 C 17.117188 32.777344 17.753906 32.648438 18.0625 32.1875 C 18.371094 31.726563 18.242188 31.121094 17.78125 30.8125 C 17.550781 30.660156 17.28125 30.605469 17.03125 30.65625 Z M 32.59375 30.65625 C 32.464844 30.679688 32.332031 30.734375 32.21875 30.8125 C 31.757813 31.121094 31.628906 31.726563 31.9375 32.1875 C 32.246094 32.648438 32.882813 32.777344 33.34375 32.46875 C 33.804688 32.160156 33.902344 31.554688 33.59375 31.09375 C 33.363281 30.75 32.976563 30.582031 32.59375 30.65625 Z M 19.625 31.9375 C 19.234375 31.941406 18.878906 32.179688 18.71875 32.5625 C 18.507813 33.074219 18.738281 33.632813 19.25 33.84375 C 19.761719 34.054688 20.351563 33.824219 20.5625 33.3125 C 20.773438 32.800781 20.542969 32.210938 20.03125 32 C 19.902344 31.945313 19.753906 31.9375 19.625 31.9375 Z M 30.375 31.9375 C 30.246094 31.9375 30.097656 31.945313 29.96875 32 C 29.457031 32.210938 29.226563 32.800781 29.4375 33.3125 C 29.648438 33.824219 30.238281 34.054688 30.75 33.84375 C 31.261719 33.632813 31.492188 33.074219 31.28125 32.5625 C 31.121094 32.179688 30.765625 31.941406 30.375 31.9375 Z M 11.90625 32.28125 C 13.675781 34.164063 15.816406 35.699219 18.25 36.6875 L 13.3125 45.125 L 11.28125 42.15625 C 11.113281 41.921875 10.847656 41.777344 10.5625 41.75 L 6.65625 41.28125 Z M 38.09375 32.28125 L 43.34375 41.28125 L 39.4375 41.75 C 39.152344 41.777344 38.886719 41.921875 38.71875 42.15625 L 36.6875 45.125 L 31.75 36.6875 C 34.183594 35.699219 36.324219 34.164063 38.09375 32.28125 Z M 22.0625 32.75 C 21.679688 32.828125 21.363281 33.125 21.28125 33.53125 C 21.171875 34.074219 21.519531 34.609375 22.0625 34.71875 C 22.605469 34.828125 23.140625 34.480469 23.25 33.9375 C 23.355469 33.394531 23.007813 32.859375 22.46875 32.75 C 22.332031 32.722656 22.191406 32.722656 22.0625 32.75 Z M 27.53125 32.75 C 26.988281 32.859375 26.644531 33.394531 26.75 33.9375 C 26.859375 34.480469 27.394531 34.824219 27.9375 34.71875 C 28.480469 34.609375 28.824219 34.074219 28.71875 33.53125 C 28.609375 32.988281 28.074219 32.640625 27.53125 32.75 Z M 25 33 C 24.449219 33 24 33.449219 24 34 C 24 34.550781 24.449219 35 25 35 C 25.550781 35 26 34.550781 26 34 C 26 33.449219 25.550781 33 25 33 Z "></path>
</g>
</svg>