<?xml version="1.0" encoding="iso-8859-1"?>
<!-- Generator: Adobe Illustrator 19.0.0, SVG Export Plug-In . SVG Version: 6.00 Build 0)  -->
<svg version="1.1" id="Capa_1" xmlns="http://www.w3.org/2000/svg" xmlns:xlink="http://www.w3.org/1999/xlink" x="0px" y="0px"
	 viewBox="0 0 512 512" style="enable-background:new 0 0 512 512;" xml:space="preserve">
<path style="fill:#45748C;" d="M491.022,383.978H35.895C29.878,383.978,25,379.1,25,373.083V326.38h486.485v37.135
	C511.485,374.817,502.323,383.978,491.022,383.978z"/>
<path style="fill:#FFB125;" d="M370.638,357.601H15.462C6.922,357.601,0,350.679,0,342.14V105.483
	c0-8.539,6.922-15.462,15.462-15.462h339.715c8.539,0,15.462,6.922,15.462,15.462v252.118H370.638z"/>
<path style="fill:#FF901D;" d="M355.176,90.022h-45.333c8.539,0,15.461,6.922,15.461,15.462v205.129
	c0,12.145-9.845,21.99-21.99,21.99H15.461C6.922,332.601,0,325.679,0,317.14v25c0,8.539,6.922,15.462,15.462,15.462h355.176V105.483
	C370.638,96.944,363.716,90.022,355.176,90.022z"/>
<path style="fill:#3C6A7C;" d="M512,357.601H370.638V191.978h80.785c4.208,0,8.242,1.685,11.199,4.679l44.835,45.389
	c2.91,2.946,4.543,6.921,4.543,11.063V357.601z"/>
<path style="fill:#305B68;" d="M507.458,242.047l-44.835-45.389c-2.958-2.994-6.991-4.679-11.199-4.679h-45.878
	c4.208,0,8.242,1.685,11.199,4.679l44.835,45.389c2.91,2.946,4.542,6.921,4.542,11.062v65.215c0,7.098-5.754,12.853-12.853,12.853
	h-82.631v26.425H512V253.109C512,248.967,510.368,244.993,507.458,242.047z"/>
<path style="fill:#21D8DE;" d="M397.638,287.152v-59.656c0-3.591,2.911-6.501,6.501-6.501h39.864c1.738,0,3.404,0.696,4.625,1.932
	l34.496,34.922c1.202,1.217,1.876,2.858,1.876,4.569v24.734c0,3.591-2.911,6.501-6.501,6.501h-74.36
	C400.548,293.653,397.638,290.742,397.638,287.152z"/>
<g>
	<circle style="fill:#1D4859;" cx="110.33" cy="379.31" r="42.667"/>
	<circle style="fill:#1D4859;" cx="438.11" cy="379.31" r="42.667"/>
</g>
<g>
	<path style="fill:#FFFFFF;" d="M45.727,166.764c0-3.774,4.011-5.662,8.021-5.662h40.929c3.892,0,5.543,4.128,5.543,7.903
		c0,4.364-2.005,8.138-5.543,8.138h-30.55v19.934h17.811c3.539,0,5.544,3.421,5.544,7.195c0,3.185-1.651,6.959-5.544,6.959H64.127
		v30.431c0,3.774-4.6,5.662-9.2,5.662s-9.2-1.887-9.2-5.662C45.727,241.662,45.727,166.764,45.727,166.764z"/>
	<path style="fill:#FFFFFF;" d="M115.437,166.646c0-2.949,2.241-5.543,5.662-5.543h24.416c16.159,0,29.016,6.015,29.016,25.241
		c0,13.21-6.015,20.759-14.272,23.944l14.39,26.067c0.472,0.708,0.59,1.533,0.59,2.123c0,4.6-6.134,9.554-11.56,9.554
		c-2.359,0-4.6-0.943-5.897-3.42l-16.159-31.375h-7.785v28.426c0,3.774-4.6,5.662-9.2,5.662s-9.2-1.887-9.2-5.662v-75.017H115.437z
		 M133.838,177.144v21.939h11.677c6.605,0,10.615-2.713,10.615-10.969c0-8.257-4.01-10.97-10.615-10.97H133.838z"/>
	<path style="fill:#FFFFFF;" d="M211.688,197.077h17.692c3.539,0,5.544,3.421,5.544,7.195c0,3.185-1.651,6.959-5.544,6.959h-17.692
		v20.051h31.611c3.539,0,5.543,3.774,5.543,8.139c0,3.774-1.651,7.903-5.543,7.903h-41.99c-4.01,0-8.021-1.887-8.021-5.662v-74.898
		c0-3.774,4.011-5.662,8.021-5.662h41.99c3.892,0,5.543,4.128,5.543,7.903c0,4.364-2.005,8.138-5.543,8.138h-31.611L211.688,197.077
		L211.688,197.077z"/>
	<path style="fill:#FFFFFF;" d="M284.229,197.077h17.693c3.538,0,5.543,3.421,5.543,7.195c0,3.185-1.65,6.959-5.543,6.959h-17.693
		v20.051h31.611c3.539,0,5.543,3.774,5.543,8.139c0,3.774-1.65,7.903-5.543,7.903h-41.99c-4.011,0-8.021-1.887-8.021-5.662v-74.898
		c0-3.774,4.011-5.662,8.021-5.662h41.99c3.893,0,5.543,4.128,5.543,7.903c0,4.364-2.004,8.138-5.543,8.138h-31.611V197.077z"/>
	<path style="fill:#FFFFFF;" d="M324.505,299.558c0.197-0.199,0.379-0.412,0.553-0.633c0.05-0.063,0.096-0.128,0.144-0.193
		c0.138-0.187,0.267-0.38,0.387-0.58c0.034-0.056,0.07-0.111,0.102-0.168c0.292-0.515,0.523-1.068,0.687-1.649
		c0.02-0.071,0.037-0.143,0.055-0.215c0.056-0.224,0.102-0.452,0.137-0.683c0.012-0.079,0.026-0.156,0.036-0.236
		c0.036-0.298,0.06-0.6,0.06-0.909s-0.024-0.61-0.06-0.909c-0.01-0.079-0.024-0.157-0.036-0.236
		c-0.036-0.231-0.081-0.459-0.137-0.683c-0.018-0.072-0.035-0.144-0.055-0.215c-0.165-0.582-0.395-1.134-0.687-1.649
		c-0.032-0.057-0.068-0.112-0.102-0.168c-0.12-0.2-0.249-0.393-0.387-0.58c-0.048-0.065-0.094-0.13-0.144-0.193
		c-0.173-0.22-0.355-0.432-0.552-0.631c-0.01-0.01-0.019-0.022-0.029-0.032c-0.208-0.209-0.432-0.401-0.663-0.584
		c-0.061-0.048-0.124-0.093-0.186-0.139c-0.195-0.144-0.396-0.279-0.604-0.405c-0.037-0.022-0.069-0.049-0.106-0.071l-35.074-20.25
		c-3.589-2.072-8.175-0.842-10.245,2.745c-2.071,3.587-0.842,8.174,2.745,10.245l10.834,6.255H45.5c-4.142,0-7.5,3.358-7.5,7.5
		s3.358,7.5,7.5,7.5h245.677l-10.834,6.255c-3.587,2.071-4.816,6.658-2.745,10.245c1.389,2.406,3.91,3.751,6.502,3.751
		c1.272,0,2.563-0.324,3.743-1.006l35.074-20.25c0.037-0.021,0.069-0.049,0.106-0.071c0.208-0.125,0.41-0.26,0.604-0.405
		c0.063-0.046,0.125-0.091,0.186-0.139c0.232-0.183,0.455-0.376,0.664-0.584C324.487,299.579,324.495,299.568,324.505,299.558z"/>
</g>
<path style="fill:#193D4B;" d="M140.503,409.482c16.662-16.662,16.662-43.677,0-60.34l-60.34,60.34
	C96.826,426.144,123.841,426.144,140.503,409.482z"/>
<circle style="fill:#FFFFFF;" cx="110.33" cy="379.31" r="16.484"/>
<path style="fill:#193D4B;" d="M468.277,409.482c16.662-16.662,16.662-43.677,0-60.34l-60.34,60.34
	C424.6,426.144,451.615,426.144,468.277,409.482z"/>
<circle style="fill:#FFFFFF;" cx="438.11" cy="379.31" r="16.484"/>
<g>
</g>
<g>
</g>
<g>
</g>
<g>
</g>
<g>
</g>
<g>
</g>
<g>
</g>
<g>
</g>
<g>
</g>
<g>
</g>
<g>
</g>
<g>
</g>
<g>
</g>
<g>
</g>
<g>
</g>
</svg>
