<svg xmlns="http://www.w3.org/2000/svg" width="12.584" height="12" viewBox="0 0 12.584 12">
  <g id="star" transform="translate(0 0)">
    <g id="Path_1" data-name="Path 1" transform="translate(0 -0.452)" fill="none">
      <path d="M6.589.65l1.6,3.788,4.1.352a.323.323,0,0,1,.184.566L9.363,8.049l.931,4.006a.323.323,0,0,1-.481.349L6.292,10.281,2.77,12.4a.323.323,0,0,1-.481-.349l.931-4.006L.112,5.355A.323.323,0,0,1,.3,4.789l4.1-.352L5.994.65a.323.323,0,0,1,.595,0Z" stroke="none"/>
      <path d="M 6.291565418243408 2.514921188354492 L 5.314671516418457 4.82666015625 L 5.079941749572754 5.382120609283447 L 4.479131698608398 5.433740615844727 L 1.977407455444336 5.64866304397583 L 3.875351905822754 7.293040752410889 L 4.331121444702148 7.687920570373535 L 4.194551467895508 8.275300979614258 L 3.626020431518555 10.72051906585693 L 5.775501728057861 9.424200057983398 L 6.29194164276123 9.112751007080078 L 6.8083815574646 9.424200057983398 L 8.957871437072754 10.72052764892578 L 8.389341354370117 8.275300979614258 L 8.252771377563477 7.687910556793213 L 8.708561897277832 7.293030738830566 L 10.60580635070801 5.649303436279297 L 8.104111671447754 5.434390544891357 L 7.503251552581787 5.382770538330078 L 7.268541812896729 4.827250480651855 L 6.291565418243408 2.514921188354492 M 6.291621685028076 0.451995849609375 C 6.412571907043457 0.451995849609375 6.53352165222168 0.5178804397583008 6.589071750640869 0.6496505737304688 L 8.189701080322266 4.438060760498047 L 12.28751182556152 4.790090560913086 C 12.57172203063965 4.814640998840332 12.68734169006348 5.169260501861572 12.47160148620605 5.355930805206299 L 9.363361358642578 8.048830032348633 L 10.29480171203613 12.0549201965332 C 10.34503364562988 12.27142715454102 10.17374897003174 12.45200252532959 9.980269432067871 12.45200252532959 C 9.924967765808105 12.45200252532959 9.867856025695801 12.43725204467773 9.813581466674805 12.40437030792236 L 6.29194164276123 10.28053092956543 L 2.77031135559082 12.40437030792236 C 2.716042518615723 12.4370174407959 2.659008026123047 12.45166683197021 2.60381031036377 12.45166683197021 C 2.410012245178223 12.45166683197021 2.23882007598877 12.27109909057617 2.289092063903809 12.0549201965332 L 3.220531463623047 8.048830032348633 L 0.1116418838500977 5.355290412902832 C -0.1040983200073242 5.168610572814941 0.01088142395019531 4.813990592956543 0.2957420349121094 4.789450645446777 L 4.39354133605957 4.437410354614258 L 5.994171619415283 0.6496505737304688 C 6.049721717834473 0.5178804397583008 6.170671463012695 0.451995849609375 6.291621685028076 0.451995849609375 Z" stroke="none" />
    </g>
  </g>
</svg>
