<?xml version="1.0" encoding="iso-8859-1"?>
<!-- Generator: Adobe Illustrator 19.0.0, SVG Export Plug-In . SVG Version: 6.00 Build 0)  -->
<svg version="1.1" id="Capa_1" xmlns="http://www.w3.org/2000/svg" xmlns:xlink="http://www.w3.org/1999/xlink" x="0px" y="0px"
	 viewBox="0 0 512 512" style="enable-background:new 0 0 512 512;" xml:space="preserve">
<path style="fill:#2C5871;" d="M446.107,235.917c-1.92,0-3.839-0.732-5.304-2.197L261.063,53.979c-2.791-2.792-7.336-2.792-10.127,0
	L71.196,233.72c-2.931,2.929-7.679,2.928-10.607,0c-2.929-2.929-2.929-7.678,0-10.606l179.74-179.741
	c8.641-8.641,22.701-8.641,31.342,0l179.74,179.741c2.929,2.929,2.929,7.678,0,10.606
	C449.946,235.184,448.026,235.917,446.107,235.917z"/>
<path style="fill:#FF4C4C;" d="M484.369,475.108H27.631C12.371,475.108,0,462.737,0,447.476V224.711
	c0-15.26,12.371-27.631,27.631-27.631h456.737c15.26,0,27.631,12.371,27.631,27.631v222.765
	C512,462.737,499.629,475.108,484.369,475.108z"/>
<path style="fill:#F33939;" d="M484.369,197.08h-18.156c0.292,1.612,0.453,3.269,0.453,4.965V424.81
	c0,15.26-12.371,27.631-27.631,27.631H0.454c2.34,12.89,13.613,22.667,27.178,22.667h456.737c15.26,0,27.631-12.371,27.631-27.631
	V224.711C512,209.451,499.629,197.08,484.369,197.08z"/>
<g>
	<path style="fill:#FFFFFF;" d="M122.589,365.729c0-28.904-53.072-17.637-53.072-56.828c0-24.169,20.249-31.354,37.722-31.354
		c10.614,0,29.721,2.775,29.721,11.757c0,3.267-2.286,9.309-7.186,9.309c-4.409,0-8.654-6.205-22.535-6.205
		c-11.921,0-20.412,4.572-20.412,14.859c0,24.169,53.072,13.228,53.072,56.665c0,23.353-15.677,34.783-37.232,34.783
		c-21.229,0-36.089-11.104-36.089-19.27c0-3.919,3.429-9.308,7.512-9.308c5.879,0,9.798,12.9,27.924,12.9
		C113.771,383.039,122.589,377.487,122.589,365.729z"/>
	<path style="fill:#FFFFFF;" d="M160.146,390.225c0-0.49,0-0.98,0.163-1.47l32.497-105.818c1.306-3.919,6.042-5.879,10.94-5.879
		c4.899,0,9.798,1.96,11.104,5.879l32.333,105.818c0.164,0.489,0.327,0.979,0.327,1.47c0,4.082-6.042,7.185-10.941,7.185
		c-2.776,0-5.063-0.979-5.879-3.593l-6.695-23.188H183.66l-6.695,23.188c-0.816,2.613-3.103,3.593-6.042,3.593
		C166.188,397.409,160.146,394.47,160.146,390.225z M220.076,356.748l-16.33-56.012l-16.33,56.012H220.076z"/>
	<path style="fill:#FFFFFF;" d="M280.495,397.409c-3.756,0-7.675-1.959-7.675-5.715V283.59c0-3.919,4.409-5.553,8.655-5.553
		c4.409,0,8.654,1.634,8.654,5.553v98.47h42.458c3.43,0,5.226,3.756,5.226,7.675c0,3.756-1.796,7.675-5.226,7.675L280.495,397.409
		L280.495,397.409z"/>
	<path style="fill:#FFFFFF;" d="M380.433,330.783h25.148c3.592,0,5.715,3.266,5.715,7.021c0,3.104-1.796,6.695-5.715,6.695h-25.148
		v37.56h48.5c3.593,0,5.716,3.592,5.716,7.838c0,3.593-1.797,7.512-5.716,7.512h-58.135c-3.756,0-7.675-1.959-7.675-5.715V283.753
		c0-3.756,3.919-5.716,7.675-5.716h58.135c3.919,0,5.716,3.92,5.716,7.512c0,4.246-2.123,7.839-5.716,7.839h-48.5V330.783z"/>
</g>
<circle style="fill:#61AFF6;" cx="256" cy="68.38" r="24"/>
<g>
	<path style="fill:#FFFFFF;" d="M438.054,243.805H73.946c-4.143,0-7.5-3.358-7.5-7.5s3.357-7.5,7.5-7.5h364.107
		c4.143,0,7.5,3.358,7.5,7.5S442.196,243.805,438.054,243.805z"/>
	<path style="fill:#FFFFFF;" d="M438.054,440.472H73.946c-4.143,0-7.5-3.358-7.5-7.5s3.357-7.5,7.5-7.5h364.107
		c4.143,0,7.5,3.358,7.5,7.5S442.196,440.472,438.054,440.472z"/>
</g>
<path style="fill:#55A2F0;" d="M272.971,51.411c-0.001-0.001-0.002-0.002-0.002-0.002L239.027,85.35
	c0.001,0.001,0.002,0.002,0.002,0.002c9.373,9.373,24.569,9.373,33.942,0.001C282.343,75.98,282.343,60.784,272.971,51.411z"/>
<g>
</g>
<g>
</g>
<g>
</g>
<g>
</g>
<g>
</g>
<g>
</g>
<g>
</g>
<g>
</g>
<g>
</g>
<g>
</g>
<g>
</g>
<g>
</g>
<g>
</g>
<g>
</g>
<g>
</g>
</svg>
